#!OML:ASF H:\Swim 2\Project 1\Capture day 1\Session 1\male.ASF
:FULLY-SPECIFIED
:DEGREES
1097
root -0.761825 15.0482 9.71893 101.494 12.5918 -10.7031
lowerback -9.29216 9.73946 10.8787
upperback -8.04705 12.7917 -13.5262
thorax 1.97266 6.56125 -19.7408
lowerneck -15.8726 0.632708 14.502
upperneck 33.0928 -0.302025 -8.59841
head 13.8451 0.64325 -6.07005
rclavicle -3.97569e-014 -9.14409e-015
rhumerus 72.0381 -11.7466 -17.3577
rradius 38.837
rwrist -15.6852
rhand -33.4321 -5.82627
rfingers 7.12502
rthumb -6.6314 -35.7024
lclavicle -3.97569e-014 -9.14409e-015
lhumerus -705.699 -131.234 723.466
lradius 41.5791
lwrist 61.0422
lhand -19.128 -10.3624
lfingers 7.12502
lthumb 7.18159 19.4957
rfemur -58.7302 11.2823 14.0857
rtibia 27.7367
rfoot 34.3589 3.30415
rtoes 27.5052
lfemur -45.3191 12.0389 -27.8219
ltibia 61.8984
lfoot -13.5055 8.3588
ltoes -17.3785
1098
root -0.769581 15.0512 9.75142 101.431 12.8604 -9.81493
lowerback -9.11529 9.57946 11.3856
upperback -7.91719 12.5606 -13.409
thorax 1.99056 6.43847 -20.006
lowerneck -15.9931 0.640464 14.3427
upperneck 33.5211 -0.322017 -8.36298
head 14.0642 0.668029 -5.97631
rclavicle -4.29375e-014 1.14102e-013
rhumerus 71.6944 -11.5643 -17.4424
rradius 38.5559
rwrist -15.0023
rhand -33.225 -5.72714
rfingers 7.12502
rthumb -6.43143 -35.6095
lclavicle -4.29375e-014 1.14102e-013
lhumerus -708.333 -130.912 724.989
lradius 40.8936
lwrist 63.123
lhand -19.4679 -9.74945
lfingers 7.12502
lthumb 6.85346 20.1196
rfemur -58.1694 11.3218 13.9125
rtibia 25.8594
rfoot 33.6642 2.85471
rtoes 27.5137
lfemur -44.5246 11.9468 -27.6156
ltibia 63.1729
lfoot -13.2212 7.75916
ltoes -16.5684
1099
root -0.777077 15.0534 9.77973 101.389 13.1446 -8.9157
lowerback -8.97827 9.42909 11.9027
upperback -7.80371 12.3401 -13.2887
thorax 2.014 6.32103 -20.2662
lowerneck -16.0832 0.632934 14.2362
upperneck 33.8977 -0.351553 -8.20399
head 14.2528 0.6837 -5.92088
rclavicle -4.6118e-014 -8.88567e-014
rhumerus 71.3729 -11.385 -17.5524
rradius 38.2222
rwrist -14.2827
rhand -32.9143 -5.74046
rfingers 7.12502
rthumb -6.1315 -35.6317
lclavicle -4.6118e-014 -8.88567e-014
lhumerus -711.127 -130.808 726.662
lradius 40.2168
lwrist 65.3757
lhand -19.9386 -9.03043
lfingers 7.12502
lthumb 6.39911 20.8529
rfemur -57.5984 11.2498 13.8833
rtibia 24.282
rfoot 33.0924 2.56596
rtoes 27.4471
lfemur -43.8586 11.8375 -27.3899
ltibia 64.4598
lfoot -12.9744 7.11011
ltoes -15.6129
1100
root -0.784932 15.0549 9.80271 101.383 13.4497 -8.02874
lowerback -8.65485 9.25558 12.4387
upperback -8.02072 12.1008 -13.5082
thorax 2.0473 6.19895 -20.2381
lowerneck -16.1034 0.595183 14.196
upperneck 34.1406 -0.409475 -8.13026
head 14.3602 0.678533 -5.90683
rclavicle -1.74931e-014 1.41336e-013
rhumerus 71.0734 -11.2065 -17.7106
rradius 37.8584
rwrist -13.5353
rhand -32.5014 -5.86044
rfingers 7.12502
rthumb -5.73286 -35.7629
lclavicle -1.74931e-014 1.41336e-013
lhumerus -714.023 -130.91 728.399
lradius 39.5578
lwrist 67.7078
lhand -20.4399 -8.26613
lfingers 7.12502
lthumb 5.91512 21.6313
rfemur -57.0771 11.1026 13.9749
rtibia 23.0719
rfoot 32.6793 2.50284
rtoes 27.237
lfemur -43.3452 11.7195 -27.1444
ltibia 65.7406
lfoot -12.8072 6.36725
ltoes -14.9727
1101
root -0.79339 15.0557 9.81934 101.427 13.7527 -7.15364
lowerback -8.60582 9.13483 12.9578
upperback -7.96912 11.917 -13.4021
thorax 2.06768 6.09734 -20.4831
lowerneck -16.0841 0.534827 14.1763
upperneck 34.2964 -0.491892 -8.08817
head 14.4147 0.657356 -5.9067
rclavicle -4.45278e-014 1.70955e-014
rhumerus 70.7843 -11.0332 -17.9205
rradius 37.4885
rwrist -12.7869
rhand -32.0219 -6.05421
rfingers 7.12502
rthumb -5.26989 -35.9687
lclavicle -4.45278e-014 1.70955e-014
lhumerus -716.954 -131.164 730.108
lradius 38.917
lwrist 70.0468
lhand -20.9983 -7.49236
lfingers 7.12502
lthumb 5.37604 22.4194
rfemur -56.6634 10.9324 14.0911
rtibia 22.299
rfoot 32.4174 2.68158
rtoes 26.8694
lfemur -43.0226 11.5859 -26.9222
ltibia 67.0028
lfoot -12.7 5.56474
ltoes -14.7091
1102
root -0.80227 15.0561 9.82959 101.521 14.0703 -6.28251
lowerback -8.59191 9.02492 13.4999
upperback -7.94674 11.7439 -13.3022
thorax 2.08336 5.99923 -20.743
lowerneck -16.014 0.447578 14.1882
upperneck 34.3304 -0.602499 -8.09312
head 14.3962 0.615934 -5.92693
rclavicle 4.13472e-014 6.91771e-014
rhumerus 70.5099 -10.867 -18.1894
rradius 37.1212
rwrist -12.0437
rhand -31.5437 -6.27007
rfingers 7.12502
rthumb -4.80817 -36.1955
lclavicle 4.13472e-014 6.91771e-014
lhumerus -719.884 -131.508 731.726
lradius 38.3143
lwrist 72.4179
lhand -21.5083 -6.65102
lfingers 7.12502
lthumb 4.8836 23.2727
rfemur -56.3913 10.771 14.2103
rtibia 22.0204
rfoot 32.2942 3.09704
rtoes 26.357
lfemur -42.8853 11.4187 -26.7043
ltibia 68.215
lfoot -12.6562 4.70307
ltoes -14.5747
1103
root -0.811446 15.056 9.83469 101.647 14.3993 -5.41645
lowerback -8.59937 8.92418 14.0637
upperback -7.94457 11.5801 -13.2079
thorax 2.0953 5.90429 -21.0188
lowerneck -15.953 0.361355 14.1828
upperneck 34.3579 -0.714732 -8.07868
head 14.3769 0.573628 -5.93578
rclavicle -1.90833e-014 -7.7526e-014
rhumerus 70.2474 -10.7125 -18.516
rradius 36.755
rwrist -11.3006
rhand -31.1067 -6.46362
rfingers 7.12502
rthumb -4.38613 -36.3982
lclavicle -1.90833e-014 -7.7526e-014
lhumerus -722.786 -131.876 733.224
lradius 37.7628
lwrist 74.8447
lhand -21.9195 -5.77552
lfingers 7.12502
lthumb 4.48654 24.157
rfemur -56.2646 10.6388 14.3079
rtibia 22.273
rfoot 32.273 3.67014
rtoes 25.8007
lfemur -42.9148 11.2211 -26.5018
ltibia 69.3494
lfoot -12.6516 3.85716
ltoes -14.5217
1104
root -0.821203 15.0552 9.83542 101.803 14.7205 -4.56097
lowerback -8.63827 8.83393 14.612
upperback -7.96011 11.4276 -13.1203
thorax 2.10614 5.81438 -21.2863
lowerneck -15.9172 0.279963 14.1547
upperneck 34.4143 -0.826791 -8.03359
head 14.3775 0.533882 -5.93002
rclavicle -2.8625e-014 1.07344e-014
rhumerus 69.9882 -10.5695 -18.8721
rradius 36.3773
rwrist -10.5115
rhand -30.7967 -6.62316
rfingers 7.12502
rthumb -4.08686 -36.5637
lclavicle -2.8625e-014 1.07344e-014
lhumerus -725.657 -132.199 734.611
lradius 37.2744
lwrist 77.3673
lhand -22.2735 -4.86285
lfingers 7.12502
lthumb 4.14465 25.0766
rfemur -56.2907 10.5288 14.3712
rtibia 23.052
rfoot 32.311 4.325
rtoes 25.2793
lfemur -43.111 11.0164 -26.3485
ltibia 70.3734
lfoot -12.6525 3.1035
ltoes -14.5335
1105
root -0.831666 15.0535 9.83287 101.988 15.0479 -3.71888
lowerback -8.71075 8.75252 15.1525
upperback -7.99115 11.283 -13.0327
thorax 2.11759 5.7273 -21.542
lowerneck -15.875 0.200754 14.124
upperneck 34.4464 -0.942601 -7.96705
head 14.3657 0.493458 -5.91342
rclavicle 8.90555e-014 1.98785e-014
rhumerus 69.7571 -10.4411 -19.2721
rradius 35.9654
rwrist -9.63691
rhand -30.5995 -6.72213
rfingers 7.12502
rthumb -3.89637 -36.6663
lclavicle 8.90555e-014 1.98785e-014
lhumerus -728.488 -132.521 735.905
lradius 36.8533
lwrist 80.1299
lhand -22.5637 -3.96646
lfingers 7.12502
lthumb 3.86442 25.9782
rfemur -56.4561 10.4356 14.424
rtibia 24.3149
rfoot 32.4184 4.94052
rtoes 25.0291
lfemur -43.4615 10.8135 -26.23
ltibia 71.2572
lfoot -12.6562 2.50099
ltoes -14.572
1106
root -0.84326 15.0508 9.82803 102.191 15.3635 -2.91813
lowerback -8.81811 8.68609 15.6511
upperback -8.03667 11.1556 -12.9481
thorax 2.13106 5.64881 -21.765
lowerneck -15.8279 0.127457 14.1101
upperneck 34.4559 -1.05627 -7.89888
head 14.3431 0.454845 -5.89719
rclavicle 1.27222e-014 -5.88403e-014
rhumerus 69.5571 -10.3311 -19.7141
rradius 35.5035
rwrist -8.62434
rhand -30.5012 -6.77652
rfingers 7.12502
rthumb -3.80146 -36.7224
lclavicle 1.27222e-014 -5.88403e-014
lhumerus -731.269 -132.852 737.123
lradius 36.4934
lwrist 83.1513
lhand -22.9281 -3.19482
lfingers 7.12502
lthumb 3.51257 26.756
rfemur -56.7367 10.3721 14.4511
rtibia 25.9888
rfoot 32.6024 5.45107
rtoes 25.0809
lfemur -43.9483 10.6485 -26.1729
ltibia 71.9702
lfoot -12.668 2.09646
ltoes -15.0621
1107
root -0.855996 15.047 9.82017 102.429 15.6798 -2.16487
lowerback -8.97079 8.63526 16.1223
upperback -8.10063 11.0436 -12.8618
thorax 2.149 5.5775 -21.9568
lowerneck -15.7796 0.0668265 14.1142
upperneck 34.4378 -1.15626 -7.83845
head 14.3099 0.421411 -5.88368
rclavicle -2.22639e-014 7.95139e-015
rhumerus 69.4066 -10.2421 -20.1965
rradius 34.9827
rwrist -7.44715
rhand -30.4476 -6.76068
rfingers 7.12502
rthumb -3.74973 -36.7074
lclavicle -2.22639e-014 7.95139e-015
lhumerus -733.968 -133.216 738.249
lradius 36.1899
lwrist 86.4216
lhand -23.5749 -2.51813
lfingers 7.12502
lthumb 2.88788 27.4421
rfemur -57.1184 10.3039 14.5056
rtibia 27.9785
rfoot 32.8778 5.93123
rtoes 25.2679
lfemur -44.5873 10.5333 -26.17
ltibia 72.4953
lfoot -12.6897 1.91564
ltoes -15.8586
1108
root -0.870003 15.042 9.80921 102.691 15.987 -1.48755
lowerback -9.15728 8.60525 16.5514
upperback -8.18273 10.9562 -12.7737
thorax 2.16781 5.51796 -22.1072
lowerneck -15.7088 0.0127864 14.1483
upperneck 34.3491 -1.2427 -7.81444
head 14.2406 0.388497 -5.88373
rclavicle -5.40694e-014 -6.75868e-015
rhumerus 69.3021 -10.1761 -20.7035
rradius 34.4093
rwrist -6.1196
rhand -30.3998 -6.66319
rfingers 7.12502
rthumb -3.70353 -36.6108
lclavicle -5.40694e-014 -6.75868e-015
lhumerus -736.579 -133.596 739.288
lradius 35.9377
lwrist 89.8199
lhand -24.2253 -2.06341
lfingers 7.12502
lthumb 2.25974 27.9044
rfemur -57.5712 10.2353 14.5866
rtibia 30.1888
rfoot 33.2777 6.45005
rtoes 25.459
lfemur -45.3539 10.4868 -26.232
ltibia 72.8073
lfoot -12.7241 1.96776
ltoes -16.8086
1109
root -0.884401 15.0363 9.79629 102.962 16.2714 -0.9006
lowerback -9.35828 8.59518 16.9353
upperback -8.2788 10.8946 -12.6867
thorax 2.18302 5.471 -22.2202
lowerneck -15.6308 -0.0310935 14.1935
upperneck 34.2109 -1.30507 -7.83034
head 14.1499 0.358902 -5.89573
rclavicle -6.67916e-014 1.2921e-013
rhumerus 69.2443 -10.1385 -21.2367
rradius 33.7963
rwrist -4.64992
rhand -30.2971 -6.49838
rfingers 7.12502
rthumb -3.60441 -36.4476
lclavicle -6.67916e-014 1.2921e-013
lhumerus -739.081 -133.977 740.228
lradius 35.7182
lwrist 93.1612
lhand -24.8055 -1.81821
lfingers 7.12502
lthumb 1.69946 28.1548
rfemur -58.0593 10.197 14.6485
rtibia 32.5336
rfoot 33.7877 6.98281
rtoes 25.5811
lfemur -46.2237 10.5205 -26.3827
ltibia 72.8869
lfoot -12.776 2.2559
ltoes -17.8017
1110
root -0.898267 15.0301 9.78162 103.225 16.5243 -0.413574
lowerback -9.5553 8.60485 17.2692
upperback -8.38389 10.8618 -12.6009
thorax 2.19128 5.43829 -22.2951
lowerneck -15.5784 -0.0620678 14.2236
upperneck 34.0834 -1.34919 -7.84525
head 14.0731 0.335499 -5.90352
rclavicle -1.20861e-013 4.37326e-015
rhumerus 69.2179 -10.132 -21.7846
rradius 33.1639
rwrist -3.02832
rhand -30.1126 -6.29073
rfingers 7.12502
rthumb -3.42619 -36.2429
lclavicle -1.20861e-013 4.37326e-015
lhumerus -741.471 -134.397 741.074
lradius 35.5126
lwrist 96.3292
lhand -25.2465 -1.7184
lfingers 7.12502
lthumb 1.27347 28.2575
rfemur -58.5493 10.1977 14.6728
rtibia 34.9454
rfoot 34.372 7.5187
rtoes 25.5981
lfemur -47.1582 10.6265 -26.6292
ltibia 72.7115
lfoot -12.8552 2.7452
ltoes -18.5447
1111
root -0.910672 15.0232 9.76624 103.453 16.7299 -0.04177
lowerback -9.73108 8.63247 17.5445
upperback -8.48804 10.8587 -12.5201
thorax 2.19476 5.42171 -22.3336
lowerneck -15.5381 -0.0839287 14.2405
upperneck 33.9453 -1.3849 -7.84349
head 13.9964 0.315125 -5.90052
rclavicle -1.01778e-013 5.24792e-014
rhumerus 69.2032 -10.1516 -22.3173
rradius 32.5441
rwrist -1.32813
rhand -29.8483 -6.07312
rfingers 7.12502
rthumb -3.17093 -36.0293
lclavicle -1.01778e-013 5.24792e-014
lhumerus -743.727 -134.863 741.807
lradius 35.3008
lwrist 99.1511
lhand -25.5466 -1.66185
lfingers 7.12502
lthumb 0.983632 28.3156
rfemur -59.006 10.2641 14.6228
rtibia 37.3716
rfoot 34.9745 8.01951
rtoes 25.5072
lfemur -48.1066 10.8005 -26.9858
ltibia 72.2606
lfoot -12.9666 3.41796
ltoes -18.816
